HIERARCHY
ROOT hip
{
	OFFSET 0.000000 0.000000 0.000000 
	CHANNELS 6 Xposition Yposition Zposition Xrotation Zrotation Yrotation
	JOINT abdomen
	{
		OFFSET 0.000000 3.402643 0.000000 
		CHANNELS 3 Xrotation Zrotation Yrotation
		JOINT chest
		{
			OFFSET 0.000000 8.438565 -0.680529 
			CHANNELS 3 Xrotation Zrotation Yrotation
			JOINT neck
			{
				OFFSET 0.000000 10.207942 -0.272212 
				CHANNELS 3 Xrotation Zrotation Yrotation
				JOINT head
				{
					OFFSET 0.000000 3.130431 0.000000 
					CHANNELS 3 Xrotation Zrotation Yrotation
					End Site
					{
						OFFSET 0.000000 3.130435 0.000000 
					}
				}
			}
			JOINT lCollar
			{
				OFFSET 3.470700 6.669187 -0.816635 
				CHANNELS 3 Yrotation Zrotation Xrotation
				JOINT lShldr
				{
					OFFSET 3.198488 0.000000 0.000000 
					CHANNELS 3 Zrotation Yrotation Xrotation
					JOINT lForeArm
					{
						OFFSET 10.139888 0.000000 0.000000 
						CHANNELS 3 Yrotation Zrotation Xrotation
						JOINT lHand
						{
							OFFSET 8.370511 0.000000 0.000000 
							CHANNELS 3 Zrotation Yrotation Xrotation
							End Site
							{
								OFFSET 4.083176 0.000000 0.000000 
							}
						}
					}
				}
			}
			JOINT rCollar
			{
				OFFSET -3.470700 6.669187 -0.816635 
				CHANNELS 3 Yrotation Zrotation Xrotation
				JOINT rShldr
				{
					OFFSET -3.198488 0.000000 0.000000 
					CHANNELS 3 Zrotation Yrotation Xrotation
					JOINT rForeArm
					{
						OFFSET -10.139888 0.000000 0.000000 
						CHANNELS 3 Yrotation Zrotation Xrotation
						JOINT rHand
						{
							OFFSET -8.370511 0.000000 0.000000 
							CHANNELS 3 Zrotation Yrotation Xrotation
							End Site
							{
								OFFSET -4.083176 0.000000 0.000000 
							}
						}
					}
				}
			}
		}
	}
	JOINT lThigh
	{
		OFFSET 5.308129 -1.633274 1.361059 
		CHANNELS 3 Xrotation Zrotation Yrotation
		JOINT lShin
		{
			OFFSET -2.041588 -20.007561 0.000000 
			CHANNELS 3 Xrotation Zrotation Yrotation
			JOINT lFoot
			{
				OFFSET 0.000000 -19.190928 -1.224953 
				CHANNELS 3 Xrotation Yrotation Zrotation
				End Site
				{
					OFFSET 0.000000 -2.449906 4.627600 
				}
			}
		}
	}
	JOINT rThigh
	{
		OFFSET -5.308129 -1.633274 1.361059 
		CHANNELS 3 Xrotation Zrotation Yrotation
		JOINT rShin
		{
			OFFSET 2.041588 -20.007561 0.000000 
			CHANNELS 3 Xrotation Zrotation Yrotation
			JOINT rFoot
			{
				OFFSET 0.000000 -19.190928 -1.224953 
				CHANNELS 3 Xrotation Yrotation Zrotation
				End Site
				{
					OFFSET 0.000000 -2.449906 4.627600 
				}
			}
		}
	}
}
MOTION
Frames: 16
Frame Time: 0.016667
-0.078441 41.436596 -2.538363 3.915640 -3.965360 1.340100 -23.684099 2.539200 0.994812 13.273000 2.722030 0.726835 8.588650 2.875030 -4.543300 8.799190 6.023900 -2.092700 2.000000 -2.000000 0.000000 -87.779900 -3.184940 167.048004 24.219000 -0.339531 0.056145 0.048717 0.026214 -123.962997 -2.000000 2.000000 0.000000 -100.440002 -173.514008 -7.622880 -34.092201 0.328069 0.076636 -0.054492 0.005469 -138.875000 -18.741957 5.050957 -5.189506 43.297626 2.365419 3.016862 -23.274462 9.441420 4.802387 -18.764631 2.592832 5.142802 42.526184 -2.200736 -3.059238 -20.059326 -9.946333 -4.631238 
-0.079867 41.431721 -2.544079 3.915870 -4.014080 1.366070 -23.713800 2.534010 0.953363 13.243800 2.702480 0.708393 8.921670 2.877510 -4.522890 8.897270 6.013100 -2.102800 2.000000 -2.000000 0.000000 -87.779900 -3.155780 166.988998 24.199499 -0.339550 0.056102 0.048717 0.026214 -123.962997 -2.000000 2.000000 0.000000 -100.419998 -173.542999 -7.613050 -33.984699 0.328212 0.076424 -0.054483 0.005195 -138.776993 -18.790205 5.099194 -5.193175 43.356884 2.360255 3.023396 -23.300325 9.398251 4.799323 -18.754864 2.642704 5.109423 42.507271 -2.194959 -3.067217 -20.057756 -9.941294 -4.648972 
-0.079212 41.426834 -2.548641 3.916010 -4.043300 1.393370 -23.733700 2.532380 0.921368 13.224200 2.702360 0.687941 9.352630 2.926080 -4.483180 9.054600 6.030810 -2.084730 2.000000 -2.000000 0.000000 -87.799400 -3.165780 166.891998 24.150700 -0.339598 0.055996 0.048797 0.026561 -123.835999 -2.000000 2.000000 0.000000 -100.410004 -173.524002 -7.574030 -33.945702 0.328264 0.076346 -0.054489 0.005387 -138.845993 -18.838177 5.122699 -5.233286 43.406113 2.360887 3.032308 -23.289188 9.375067 4.783505 -18.740942 2.655897 5.080034 42.497227 -2.192109 -3.056685 -20.027603 -10.001033 -4.670299 
-0.078469 41.423485 -2.551775 3.906320 -4.062840 1.392040 -23.733801 2.525520 0.903080 13.204700 2.692560 0.688267 9.676530 2.927520 -4.473190 9.162610 6.029580 -2.083220 2.000000 -2.000000 0.000000 -87.818901 -3.185440 166.832993 24.101801 -0.339646 0.055890 0.048860 0.026827 -123.737999 -2.000000 2.000000 0.000000 -100.390999 -173.572998 -7.583680 -33.877300 0.328355 0.076211 -0.054489 0.005387 -138.845993 -18.854004 5.143126 -5.244301 43.455654 2.354211 3.038454 -23.309629 9.376853 4.786791 -18.728010 2.666952 5.060997 42.487541 -2.199418 -3.069288 -20.034122 -9.972632 -4.643428 
-0.076927 41.419765 -2.553775 3.906320 -4.062840 1.392040 -23.743601 2.521950 0.893616 13.204700 2.692560 0.678502 9.924340 2.938030 -4.499240 9.250980 6.028560 -2.103280 2.000000 -2.000000 0.000000 -87.838402 -3.214780 166.813995 24.062799 -0.339684 0.055805 0.048885 0.026934 -123.698997 -2.000000 2.000000 0.000000 -100.390999 -173.572998 -7.554380 -33.877300 0.328355 0.076211 -0.054495 0.005551 -138.904007 -18.878996 5.134632 -5.272207 43.493977 2.363339 3.031428 -23.326571 9.419363 4.793575 -18.738056 2.665892 5.060106 42.478374 -2.184628 -3.064059 -20.029955 -9.992716 -4.678057 
-0.077757 41.414619 -2.554932 3.886780 -4.072670 1.353700 -23.733801 2.525520 0.903080 13.204700 2.692560 0.678502 10.112200 2.931670 -4.516480 9.309900 6.027880 -2.116660 2.000000 -2.000000 0.000000 -87.867699 -3.253940 166.774994 24.023701 -0.339722 0.055719 0.048960 0.027253 -123.582001 -2.000000 2.000000 0.000000 -100.371002 -173.582001 -7.583660 -33.887100 0.328342 0.076230 -0.054495 0.005551 -138.904007 -18.866428 5.140985 -5.262851 43.522659 2.369201 3.023365 -23.343744 9.448889 4.826036 -18.744183 2.693385 5.066293 42.516563 -2.197053 -3.058079 -19.998106 -10.107424 -4.697175 
-0.079926 41.410892 -2.557785 3.876950 -4.062980 1.355750 -23.714300 2.522380 0.894575 13.224100 2.721730 0.675689 10.211800 2.946940 -4.530800 9.329650 6.037370 -2.133240 2.000000 -2.000000 0.000000 -87.906700 -3.273470 166.774994 24.023701 -0.339722 0.055719 0.048928 0.027120 -123.630997 -2.000000 2.000000 0.000000 -100.371002 -173.582001 -7.583660 -33.935902 0.328277 0.076327 -0.054495 0.005551 -138.904007 -18.858820 5.131250 -5.262754 43.544022 2.353846 3.046211 -23.366972 9.440207 4.833766 -18.728722 2.687531 5.117025 42.535606 -2.199865 -3.048990 -20.062498 -9.977300 -4.660793 
-0.080525 41.406017 -2.560066 3.837690 -4.043680 1.330520 -23.684900 2.526230 0.904679 13.243600 2.731540 0.685141 10.301000 2.953420 -4.538220 9.359230 6.046740 -2.139020 2.000000 -2.000000 0.000000 -87.936096 -3.302650 166.824005 24.072500 -0.339674 0.055826 0.048853 0.026800 -123.748001 -2.000000 2.000000 0.000000 -100.362000 -173.612000 -7.544530 -33.965199 0.328238 0.076385 -0.054496 0.005578 -138.914001 -18.822521 5.111950 -5.251854 43.553387 2.354250 3.036466 -23.362610 9.478622 4.847217 -18.731255 2.663133 5.099651 42.585056 -2.195126 -3.055840 -20.067575 -10.012612 -4.670468 
-0.080439 41.403702 -2.561211 3.818160 -4.053510 1.311720 -23.665100 2.520990 0.918379 13.263200 2.721970 0.687309 10.400200 2.862340 -4.581530 9.398040 6.007390 -2.158080 2.000000 -2.000000 0.000000 -87.955597 -3.331790 166.891998 24.092100 -0.339655 0.055868 0.048785 0.026508 -123.855003 -2.000000 2.000000 0.000000 -100.351997 -173.641006 -7.505390 -33.984699 0.328212 0.076424 -0.054497 0.005633 -138.932999 -18.806377 5.128815 -5.234385 43.573723 2.344832 3.042169 -23.376614 9.470894 4.843166 -18.721174 2.676986 5.128290 42.616707 -2.175652 -3.086755 -20.108765 -9.928292 -4.648225 
-0.079498 41.395481 -2.563200 3.788740 -4.043910 1.265610 -23.635500 2.519320 0.941533 13.273000 2.722030 0.697538 10.438900 2.890960 -4.561980 9.407970 6.016990 -2.146380 2.000000 -2.000000 0.000000 -87.965401 -3.370720 166.951004 24.131100 -0.339617 0.055953 0.048754 0.026374 -123.903999 -2.000000 2.000000 0.000000 -100.332001 -173.610992 -7.446870 -34.072601 0.328095 0.076597 -0.054499 0.005687 -138.953003 -18.772537 5.132574 -5.206882 43.602612 2.355047 3.045448 -23.374075 9.505067 4.853830 -18.711737 2.670003 5.120286 42.673904 -2.191902 -3.072095 -20.132456 -9.929116 -4.639495 
-0.078526 41.390594 -2.566334 3.759330 -4.034300 1.229250 -23.625799 2.516030 0.932707 13.263100 2.741340 0.694601 10.448000 2.891390 -4.551120 9.398160 6.017110 -2.147400 2.000000 -2.000000 0.000000 -87.985001 -3.351000 167.029007 24.180000 -0.339569 0.056060 0.048736 0.026294 -123.933998 -2.000000 2.000000 0.000000 -100.342003 -173.649994 -7.378420 -34.062901 0.328108 0.076578 -0.054502 0.005769 -138.981995 -18.741859 5.120380 -5.167604 43.630844 2.362517 3.028296 -23.400129 9.514218 4.874465 -18.733940 2.675435 5.166198 42.743137 -2.180918 -3.076227 -20.157108 -9.924139 -4.640099 
-0.077757 41.385201 -2.568344 3.749490 -4.024600 1.201280 -23.625799 2.516030 0.932707 13.253300 2.750970 0.692895 10.448100 2.900990 -4.549360 9.388570 6.036670 -2.156380 2.000000 -2.000000 0.000000 -88.004601 -3.331380 167.067993 24.219000 -0.339531 0.056145 0.048711 0.026188 -123.973000 -2.000000 2.000000 0.000000 -100.342003 -173.600998 -7.319940 -34.131199 0.328016 0.076713 -0.054505 0.005851 -139.011993 -18.744810 5.112253 -5.176191 43.661945 2.347855 3.051178 -23.421118 9.514830 4.876943 -18.744431 2.667308 5.156367 42.781219 -2.196306 -3.071351 -20.144823 -9.922568 -4.647711 
-0.075786 41.379799 -2.571198 3.739610 -4.005150 1.183700 -23.615700 2.498270 0.940840 13.263100 2.741340 0.694601 10.447900 2.881790 -4.552890 9.378630 6.027070 -2.158310 2.000000 -2.000000 0.000000 -88.004601 -3.350800 167.117004 24.228800 -0.339522 0.056166 0.048699 0.026134 -123.991997 -2.000000 2.000000 0.000000 -100.322998 -173.699005 -7.339240 -34.062901 0.328108 0.076578 -0.054507 0.005906 -139.031006 -18.795025 5.098753 -5.134129 43.719471 2.355995 3.033683 -23.394007 9.552298 4.897503 -18.767529 2.646382 5.156299 42.812241 -2.173106 -3.081462 -20.144850 -9.963521 -4.672310 
-0.074843 41.373768 -2.572052 3.720040 -4.005240 1.175300 -23.605801 2.489460 0.945060 13.253300 2.741280 0.694134 10.449000 2.861310 -4.575880 9.368820 6.027180 -2.169100 2.000000 -2.000000 0.000000 -88.024101 -3.380160 167.087997 24.209299 -0.339541 0.056123 0.048724 0.026241 -123.953003 -2.000000 2.000000 0.000000 -100.303001 -173.727997 -7.339170 -34.023800 0.328160 0.076501 -0.054508 0.005933 -139.041000 -18.732058 5.105309 -5.127297 43.721279 2.340529 3.057240 -23.431137 9.516212 4.878941 -18.777796 2.639612 5.146328 42.860645 -2.184391 -3.084565 -20.194771 -9.907382 -4.655203 
-0.073158 41.364891 -2.577198 3.690670 -4.005370 1.187110 -23.596201 2.479310 0.917941 13.243500 2.741230 0.683901 10.389900 2.872790 -4.571170 9.349290 6.037140 -2.170250 2.000000 -2.000000 0.000000 -88.043602 -3.409640 167.009003 24.180000 -0.339569 0.056060 0.048724 0.026241 -123.953003 -2.000000 2.000000 0.000000 -100.313004 -173.748001 -7.290300 -34.014000 0.328173 0.076482 -0.054502 0.005769 -138.981995 -18.777164 5.089852 -5.133450 43.788990 2.348125 3.048636 -23.432613 9.537064 4.892190 -18.767803 2.640415 5.147203 42.919903 -2.178395 -3.090729 -20.231192 -9.925483 -4.659452 
-0.071644 41.356663 -2.576917 3.671090 -4.005460 1.178710 -23.576500 2.467210 0.913324 13.233800 2.731480 0.674910 10.447800 2.872180 -4.554660 9.368930 6.036910 -2.158430 2.000000 -2.000000 0.000000 -88.053299 -3.478210 166.921997 24.140900 -0.339608 0.055975 0.048754 0.026374 -123.903999 -2.000000 2.000000 0.000000 -100.303001 -173.796997 -7.299940 -33.994499 0.328199 0.076443 -0.054501 0.005742 -138.973007 -18.740831 5.103429 -5.107393 43.848038 2.347632 3.057325 -23.491402 9.552569 4.897358 -18.768394 2.640841 5.156852 42.958969 -2.179036 -3.090086 -20.219828 -9.950747 -4.662480 
